<svg width="740" height="848" viewBox="0 0 740 848" fill="none" xmlns="http://www.w3.org/2000/svg">
<path d="M541.861 19.8216C527.025 20.7432 489.589 45.3251 458.531 136.279C459.385 195.687 477.116 282.712 541.205 155.549C605.293 28.3867 568.346 12.0797 541.861 19.8216Z" fill="#1A3A6D"/>
<path d="M615.861 19.8217C601.025 20.7434 563.589 45.3253 532.531 136.279C533.385 195.687 551.116 282.712 615.205 155.55C679.293 28.3868 642.346 12.0798 615.861 19.8217Z" fill="#1E498E"/>
<path d="M203.112 19.8217C217.947 20.7434 255.383 45.3253 286.442 136.279C285.587 195.687 267.857 282.712 203.768 155.55C139.679 28.3868 176.627 12.0798 203.112 19.8217Z" fill="#1A3A6D"/>
<path d="M122.112 19.8216C136.947 20.7432 174.383 45.3251 205.442 136.279C204.587 195.687 186.857 282.712 122.768 155.549C58.6792 28.3867 95.6269 12.0797 122.112 19.8216Z" fill="#1E498E"/>
<path d="M562.159 413L435.369 482.951C497.27 551.404 640.41 686.385 717.764 678.684C795.119 670.983 646.258 498.353 562.159 413Z" fill="#164083"/>
<path d="M484.79 429L358 498.951C419.901 567.404 563.041 702.385 640.395 694.684C717.75 686.983 568.889 514.353 484.79 429Z" fill="#164083"/>
<path d="M271.21 431L398 500.951C336.099 569.404 192.959 704.385 115.605 696.684C38.2501 688.983 187.111 516.353 271.21 431Z" fill="#164083"/>
<path d="M177.21 413L304 482.951C242.099 551.404 98.9592 686.385 21.6046 678.684C-55.7499 670.983 93.1106 498.353 177.21 413Z" fill="#164083"/>
<circle cx="369" cy="264" r="244" fill="#1E498E"/>
<circle cx="369" cy="546" r="244" fill="#1E498E"/>
<rect x="125" y="264" width="488" height="298" fill="#1E498E"/>
<path d="M172 302H567V545C567 568.748 547.748 588 524 588H215C191.252 588 172 568.748 172 545V302Z" fill="#5C9BFF"/>
<circle cx="369.5" cy="312.5" r="197.5" fill="#5C9BFF"/>
<circle cx="474" cy="392" r="39" fill="white"/>
<circle cx="474" cy="311" r="39" fill="white"/>
<rect x="435" y="311" width="78" height="81" fill="white"/>
<circle cx="265" cy="392" r="39" fill="white"/>
<circle cx="265" cy="311" r="39" fill="white"/>
<rect x="226" y="311" width="78" height="81" fill="white"/>
<circle cx="271" cy="327" r="25" transform="rotate(90 271 327)" fill="#184388"/>
<circle cx="271" cy="377" r="25" transform="rotate(90 271 377)" fill="#184388"/>
<rect x="296" y="327" width="48.8095" height="50" transform="rotate(90 296 327)" fill="#184388"/>
<circle cx="271" cy="327" r="25" transform="rotate(90 271 327)" fill="#184388"/>
<circle cx="271" cy="377" r="25" transform="rotate(90 271 377)" fill="#184388"/>
<rect x="296" y="327" width="48.8095" height="50" transform="rotate(90 296 327)" fill="#184388"/>
<circle cx="287" cy="313" r="11" fill="white"/>
<circle cx="468" cy="327" r="25" transform="rotate(90 468 327)" fill="#184388"/>
<circle cx="468" cy="377" r="25" transform="rotate(90 468 377)" fill="#184388"/>
<rect x="493" y="327" width="48.8095" height="50" transform="rotate(90 493 327)" fill="#184388"/>
<circle cx="484" cy="313" r="11" fill="white"/>
<circle cx="544.418" cy="788.589" r="25" transform="rotate(150 544.418 788.589)" fill="#184388"/>
<circle cx="501.116" cy="813.589" r="25" transform="rotate(150 501.116 813.589)" fill="#184388"/>
<rect x="556.917" y="810.24" width="48.8095" height="50" transform="rotate(150 556.917 810.24)" fill="#184388"/>
<circle cx="236.452" cy="813.589" r="25" transform="rotate(-150 236.452 813.589)" fill="#184388"/>
<circle cx="193.151" cy="788.589" r="25" transform="rotate(-150 193.151 788.589)" fill="#184388"/>
<rect x="223.952" y="835.24" width="48.8095" height="50" transform="rotate(-150 223.952 835.24)" fill="#184388"/>
<path d="M376.551 484.597C373.851 487.753 369.012 487.877 366.154 484.863L336.708 453.817C332.478 449.357 335.639 442 341.787 442L397.797 442C403.775 442 407.003 449.009 403.116 453.551L376.551 484.597Z" fill="#FFA600"/>
<path d="M363.808 384.951C366.6 381.051 372.4 381.051 375.192 384.951L413.865 438.974C416.779 443.044 414.603 448.768 409.722 449.876L371.049 458.649C370.029 458.88 368.971 458.88 367.951 458.649L329.278 449.876C324.397 448.768 322.221 443.044 325.135 438.974L363.808 384.951Z" fill="#B7FF00"/>
<path d="M362.938 402.5C365.632 397.833 372.368 397.833 375.062 402.5L384.588 419C387.283 423.667 383.915 429.5 378.526 429.5H359.474C354.085 429.5 350.717 423.667 353.412 419L362.938 402.5Z" fill="white"/>
<circle cx="368.51" cy="604.51" r="16.5" transform="rotate(-179.967 368.51 604.51)" fill="#B7FF00"/>
<rect x="385.01" y="604.019" width="33" height="16" transform="rotate(-179.967 385.01 604.019)" fill="#B7FF00"/>
<path d="M368.5 596L385.387 678.5H351.613L368.5 596Z" fill="#B7FF00"/>
<path d="M368.5 707L351.613 678.5L385.387 678.5L368.5 707Z" fill="#B7FF00"/>
</svg>
