<?xml version="1.0" encoding="UTF-8"?>
<svg version="1.1" xmlns="http://www.w3.org/2000/svg" width="1024" height="1024">
<path d="M0 0 C0.85092224 -0.00281982 1.70184448 -0.00563965 2.57855225 -0.00854492 C3.95879829 -0.00550858 3.95879829 -0.00550858 5.3669281 -0.00241089 C6.34634369 -0.00416321 7.32575928 -0.00591553 8.33485413 -0.00772095 C11.56748738 -0.01211691 14.80006579 -0.00920961 18.03269958 -0.00582886 C20.28041596 -0.00650249 22.52813226 -0.00747301 24.77584839 -0.00872803 C29.48411249 -0.0102019 34.19235761 -0.00806019 38.90061951 -0.00338745 C44.93893982 0.00231292 50.97721571 -0.0009731 57.0155344 -0.00695992 C61.65572444 -0.01057109 66.29590393 -0.00942443 70.93609428 -0.00683212 C73.16286665 -0.00616457 75.38963996 -0.00698531 77.61641121 -0.00931168 C80.72598439 -0.01184764 83.83548531 -0.00798434 86.9450531 -0.00241089 C87.86724136 -0.00443512 88.78942963 -0.00645935 89.73956299 -0.00854492 C91.01171661 -0.00431519 91.01171661 -0.00431519 92.30957031 0 C93.04419778 0.00037703 93.77882524 0.00075405 94.53571415 0.0011425 C96.66229718 0.13133045 98.54558142 0.54592576 100.59129333 1.12698364 C101.32606382 6.36762707 101.70792523 11.38216311 101.67796326 16.68630981 C101.67566271 17.41380495 101.67336216 18.14130009 101.6709919 18.89084053 C101.66564756 20.48810587 101.65812641 22.08536506 101.64869118 23.68261147 C101.62286466 28.24655221 101.61696947 32.81054205 101.60838318 37.37454224 C101.60613519 38.37556756 101.6038872 39.37659288 101.60157108 40.40795231 C101.56379641 60.33023363 101.69497605 80.25265544 101.82699776 100.17442513 C101.87219593 107.03172539 101.91174333 113.88896592 101.93772888 120.74636841 C101.96339178 127.51760504 102.00434221 134.28861425 102.0544796 141.05971336 C102.0709409 143.59700001 102.08258226 146.13432349 102.08890724 148.67165565 C102.13888927 166.81043668 102.73460425 184.94296379 108.27879333 202.37698364 C108.53153015 203.19360474 108.78426697 204.01022583 109.04466248 204.85159302 C111.49203662 212.41366282 114.77980492 219.42114323 118.61961365 226.3677063 C119.52578356 228.00837474 120.39971084 229.66673699 121.27098083 231.32620239 C125.09186682 238.3189722 129.72857441 244.22093231 134.97801208 250.16604614 C136.4733188 251.86028006 137.94880359 253.57367416 139.36082458 255.33792114 C148.88420418 267.1517338 162.49514509 274.91216033 175.59129333 282.12698364 C176.60707458 282.70319458 177.62285583 283.27940552 178.66941833 283.87307739 C187.49803819 288.62031013 197.01763661 291.30295519 206.59129333 294.12698364 C206.59129333 294.45698364 206.59129333 294.78698364 206.59129333 295.12698364 C196.27711206 295.93816331 186.03082245 296.27680132 175.68504333 296.25979614 C174.18890874 296.26047388 172.69277425 296.26144776 171.19664001 296.26269531 C168.07378584 296.26415754 164.95096052 296.2620707 161.82810974 296.25735474 C157.92822699 296.2517369 154.02841359 296.25500567 150.12853336 296.26077461 C135.25659341 296.27965025 120.38601285 296.22051964 105.51899719 295.80691147 C103.60002892 295.75405343 101.68086494 295.70845221 99.76170349 295.66314697 C68.90069733 294.67112551 42.93597582 280.80035546 21.59129333 259.12698364 C20.79980896 258.33421021 20.00832458 257.54143677 19.19285583 256.72463989 C7.38268047 244.19091624 -0.77240506 228.15612135 -5.22120667 211.62698364 C-5.41617737 210.90486694 -5.61114807 210.18275024 -5.81202698 209.43875122 C-9.21365299 195.81274933 -9.6967945 182.30433271 -9.63575745 168.34988403 C-9.6351919 166.51518256 -9.63551269 164.68048063 -9.63664246 162.84577942 C-9.63721136 157.91290006 -9.62553271 152.98011989 -9.61149454 148.04726338 C-9.59890934 142.87433339 -9.59781059 137.70140059 -9.59544373 132.52845764 C-9.58925169 122.75412851 -9.57287198 112.97984464 -9.55274475 103.20553535 C-9.5303145 92.0687673 -9.51937447 80.93199697 -9.50935388 69.79521191 C-9.48850351 46.90577749 -9.45337224 24.01638311 -9.40870667 1.12698364 C-6.22036348 0.42170222 -3.26376652 0.00167417 0 0 Z " fill="#FAECCC" transform="translate(330.40870666503906,422.8730163574219)"/>
<path d="M0 0 C1.429722 -0.01803999 2.85951045 -0.03085962 4.28930664 -0.04150391 C5.08550919 -0.04920807 5.88171173 -0.05691223 6.70204163 -0.06484985 C19.72519582 0.30267188 31.11938964 8.3022891 39.7421875 17.37109375 C49.212602 28.39806426 53.10772738 42.09760759 53.14044189 56.48291016 C53.14341302 57.21572079 53.14638414 57.94853142 53.1494453 58.70354843 C53.15808689 61.14873152 53.15963676 63.59386538 53.16113281 66.0390625 C53.16576467 67.79733381 53.17078982 69.55560413 53.17617798 71.31387329 C53.1892795 76.08756982 53.19574402 80.86125229 53.20018864 85.63496399 C53.20312653 88.62655829 53.20723295 91.61814882 53.21169281 94.60974121 C53.22536962 103.99529247 53.23503208 113.38083503 53.2388947 122.76639557 C53.24335847 133.55046741 53.26082698 144.33441142 53.2898953 155.11844444 C53.31164528 163.48232461 53.32160623 171.84616919 53.32293582 180.21007729 C53.32397554 185.19065906 53.32970158 190.17112073 53.34775543 195.15167236 C53.50571038 241.3964985 48.85206868 280.70765875 15 315 C-8.04958462 338.08724734 -39.47264896 349.50637235 -71.75 350.3125 C-86.94839599 350.07409379 -101.77904745 347.35120163 -116 342 C-116.6595166 341.75266113 -117.3190332 341.50532227 -117.99853516 341.25048828 C-132.04320896 335.84503639 -144.24927596 328.09909879 -155.14453125 317.71484375 C-156.8970546 315.93537035 -156.8970546 315.93537035 -159 315 C-159 314.34 -159 313.68 -159 313 C-159.66 313 -160.32 313 -161 313 C-182.12130598 293.6339272 -193.86435548 261.72505232 -195.10253906 233.67724609 C-195.12861991 231.78470179 -195.07217263 229.89134748 -195 228 C-193.35912255 226.35912255 -191.48168938 226.87260245 -189.22070312 226.87060547 C-188.202948 226.86745331 -187.18519287 226.86430115 -186.13659668 226.86105347 C-185.02933228 226.8630777 -183.92206787 226.86510193 -182.78125 226.8671875 C-181.65303833 226.86623077 -180.52482666 226.86527405 -179.36242676 226.86428833 C-176.97159774 226.86360632 -174.58076689 226.86546203 -172.18994141 226.86962891 C-168.51590849 226.87497684 -164.84199783 226.86968457 -161.16796875 226.86328125 C-158.85156223 226.86394203 -156.53515578 226.86522318 -154.21875 226.8671875 C-152.55785339 226.86415115 -152.55785339 226.86415115 -150.86340332 226.86105347 C-149.84564819 226.86420563 -148.82789307 226.86735779 -147.77929688 226.87060547 C-146.42813782 226.87179886 -146.42813782 226.87179886 -145.04968262 226.87301636 C-143 227 -143 227 -142 228 C-141.68648948 229.82175033 -141.37849403 231.64464774 -141.10058594 233.47216797 C-138.0845211 253.06818812 -129.53149354 270.71699991 -113.25 282.75 C-95.83182823 294.18236042 -76.16462703 297.95689496 -55.63671875 294.34375 C-36.7108709 289.78425187 -21.26998768 277.59744265 -10.8125 261.3125 C-3.70176626 248.83480919 -0.68973107 235.15227956 -0.7215271 220.907547 C-0.7128385 219.47849809 -0.7128385 219.47849809 -0.70397437 218.02057952 C-0.68711423 214.86239848 -0.68411001 211.7043648 -0.68115234 208.54614258 C-0.6718445 206.26868335 -0.66167457 203.9912275 -0.65071106 201.71377563 C-0.62349358 195.55553968 -0.60828613 189.3973265 -0.59528303 183.23904634 C-0.57961632 176.79415934 -0.55283741 170.3493186 -0.5272522 163.90446472 C-0.48583042 153.09509518 -0.45121837 142.28572671 -0.421875 131.47631836 C-0.39164548 120.34739357 -0.35727513 109.21849414 -0.31738281 98.08959961 C-0.31492126 97.40249359 -0.31245972 96.71538757 -0.30992357 96.00746015 C-0.29754812 92.56011643 -0.28509175 89.112773 -0.27259517 85.66542971 C-0.16918771 57.11032235 -0.08007797 28.55518179 0 0 Z " fill="#73BBC1" transform="translate(642,356)"/>
<path d="M0 0 C1.05478808 -0.00256327 2.10957615 -0.00512655 3.19632751 -0.0077675 C6.70012139 -0.01267476 10.20347601 0.0037371 13.70722961 0.02018738 C16.23098745 0.02103431 18.75474602 0.02055722 21.27850342 0.01885986 C26.69627065 0.01817862 32.11389861 0.0266396 37.53163719 0.04357338 C45.3645743 0.0680401 53.19745911 0.07577646 61.03043029 0.07953735 C73.74141146 0.08608986 86.45233461 0.10601828 99.1632843 0.13444519 C111.50475272 0.16201695 123.84620533 0.18323524 136.18769836 0.19596863 C136.94947927 0.1967568 137.71126018 0.19754497 138.49612536 0.19835702 C142.31807053 0.20227237 146.1400158 0.20606344 149.96196115 0.20979273 C181.62750009 0.24085121 213.29296615 0.29387842 244.95845032 0.36076355 C244.66873478 3.09086219 244.37069809 5.81961973 244.06782532 8.54826355 C243.98709778 9.31718933 243.90637024 10.08611511 243.82319641 10.87834167 C242.72726484 20.60603905 238.60396723 27.4871493 232.95845032 35.36076355 C232.44411438 36.10713074 231.92977844 36.85349792 231.39985657 37.6224823 C230.9241925 38.19611511 230.44852844 38.76974792 229.95845032 39.36076355 C229.29845032 39.36076355 228.63845032 39.36076355 227.95845032 39.36076355 C227.95845032 40.02076355 227.95845032 40.68076355 227.95845032 41.36076355 C226.00923157 42.94670105 226.00923157 42.94670105 223.27095032 44.73576355 C221.96577454 45.61361511 221.96577454 45.61361511 220.63423157 46.50920105 C208.99909687 52.86667737 197.39772387 52.90799519 184.53266907 52.75138855 C182.89778694 52.7454914 181.26289721 52.74142058 179.62800598 52.73918152 C173.63387062 52.71839537 167.639898 52.66255107 161.64595032 52.61076355 C148.21907532 52.52826355 134.79220032 52.44576355 120.95845032 52.36076355 C120.95845032 105.16076355 120.95845032 157.96076355 120.95845032 212.36076355 C102.87081053 213.65273782 86.24209995 213.09210953 67.95845032 212.36076355 C67.95845032 159.56076355 67.95845032 106.76076355 67.95845032 52.36076355 C28.02845032 52.36076355 -11.90154968 52.36076355 -53.04154968 52.36076355 C-53.04154968 37.39313499 -49.18674903 25.68633446 -38.91654968 14.67326355 C-27.79462313 4.12982646 -15.10354541 -0.13690562 0 0 Z " fill="#73BBC1" transform="translate(379.0415496826172,355.6392364501953)"/>
<path d="M0 0 C0.33 0 0.66 0 1 0 C1.9339509 20.05476714 2.16395153 40.06661349 2.16725707 60.13881397 C2.16797893 62.61302975 2.17013367 65.08724032 2.17275429 67.56145477 C2.18192099 76.23482098 2.18609881 84.90817208 2.18530273 93.58154297 C2.18469907 101.60649768 2.19532965 109.63138582 2.2110464 117.65632367 C2.22417446 124.61246209 2.22948468 131.5685788 2.22884732 138.52472949 C2.22859459 142.65128885 2.23132232 146.77778828 2.24202538 150.90433502 C2.25180036 154.77555572 2.2517222 158.64666009 2.24450874 162.51788521 C2.24347563 163.92420945 2.24574842 165.33054135 2.2518692 166.73685265 C2.33784449 187.88281497 -0.76491687 206.81141261 -15.6796875 222.83203125 C-27.4600575 233.83894261 -41.36770818 238.37664188 -57.2421875 238.2109375 C-74.29868575 237.25350413 -87.32839246 229.69257662 -98.5546875 217.14453125 C-101.04742558 213.93901343 -102.8749054 210.81676244 -104.6875 207.1875 C-105.26886719 206.04667969 -105.85023438 204.90585937 -106.44921875 203.73046875 C-110.5898302 194.36912854 -110.27564736 184.76220951 -110.22705078 174.73999023 C-110.22648588 173.10321561 -110.22680476 171.46644047 -110.22793579 169.82966614 C-110.22850724 165.40880752 -110.21678677 160.98805848 -110.20278788 156.56722522 C-110.19024568 151.93878921 -110.18910727 147.31035041 -110.18673706 142.68190002 C-110.18053252 133.92734853 -110.16413563 125.17284727 -110.14403808 116.41831785 C-110.12164709 106.44732647 -110.11067761 96.47633262 -110.10064721 86.50532234 C-110.07976847 66.00352024 -110.04461251 45.50176329 -110 25 C-106.87097242 23.95699081 -104.74583488 23.89112025 -101.46557617 23.91821289 C-100.32976608 23.9247438 -99.19395599 23.93127472 -98.02372742 23.93800354 C-96.79257706 23.94943893 -95.5614267 23.96087433 -94.29296875 23.97265625 C-91.67773577 23.98531653 -89.06250131 23.99767643 -86.44726562 24.00976562 C-82.33109063 24.03335628 -78.21497764 24.06179643 -74.09887695 24.09594727 C-71.4175055 24.11778329 -68.73620365 24.13393374 -66.05476379 24.14439392 C-63.53802078 24.1546002 -61.02129217 24.17292326 -58.50468445 24.20094299 C-36.67273166 24.26396376 -19.06027599 18.92666723 -2.86328125 3.91796875 C-0.93962552 2.13131396 -0.93962552 2.13131396 0 0 Z " fill="#FAECCD" transform="translate(625,399)"/>
<path d="M0 0 C4.58312131 0.01146749 9.16623375 0.00719565 13.74936533 0.00525308 C21.43323064 0.0043754 29.11700684 0.01534377 36.80084848 0.03386331 C45.6487717 0.05506812 54.49656503 0.05852796 63.34450853 0.05230135 C71.91205577 0.04658396 80.4795579 0.05227834 89.04709864 0.06347489 C92.66953104 0.06808491 96.29193554 0.06901057 99.91437006 0.06688905 C104.18440784 0.06498892 108.45431561 0.07324074 112.72432375 0.08894944 C114.27941013 0.09314739 115.83450982 0.09407364 117.38959932 0.09125924 C146.08528964 0.04724764 171.03122739 7.5765611 193.71100473 25.37004495 C194.66233286 26.08547463 195.61366098 26.80090432 196.59381723 27.5380137 C197.64182505 28.44486917 197.64182505 28.44486917 198.71100473 29.37004495 C198.71100473 30.03004495 198.71100473 30.69004495 198.71100473 31.37004495 C199.70100473 31.70004495 200.69100473 32.03004495 201.71100473 32.37004495 C201.71100473 33.03004495 201.71100473 33.69004495 201.71100473 34.37004495 C202.37100473 34.37004495 203.03100473 34.37004495 203.71100473 34.37004495 C205.00006723 35.90129495 205.00006723 35.90129495 206.33600473 37.87004495 C206.78202036 38.51973245 207.22803598 39.16941995 207.68756723 39.83879495 C208.02530161 40.34410745 208.36303598 40.84941995 208.71100473 41.37004495 C205.89945193 40.85989903 203.21221111 40.22323983 200.46807528 39.4155848 C186.86798729 35.50351128 173.33652175 35.80548194 159.28766489 35.85246682 C156.54753426 35.8492347 153.80743026 35.84005299 151.06731272 35.83122659 C144.43439156 35.81355695 137.80165273 35.8172296 131.16872479 35.82887715 C125.77072801 35.83795868 120.37278186 35.83911523 114.97477961 35.83478189 C114.20269216 35.83416895 113.43060472 35.83355602 112.63512068 35.83292452 C111.06597864 35.83164544 109.49683662 35.83034858 107.9276946 35.82903415 C93.25634534 35.8176618 78.58509648 35.83068849 63.91376369 35.85223562 C51.36468179 35.87009642 38.81574801 35.86700438 26.2666688 35.84856057 C11.64627141 35.82708211 -2.9740382 35.81876758 -17.59444916 35.83100963 C-19.1580123 35.83228363 -20.72157545 35.83354112 -22.28513861 35.83478189 C-23.05416527 35.83539899 -23.82319193 35.83601609 -24.61552244 35.83665189 C-29.99692976 35.84008448 -35.37828073 35.83432182 -40.75967932 35.82486367 C-47.33249184 35.81356405 -53.90511368 35.81684857 -60.47790478 35.83798665 C-63.82224627 35.84839272 -67.1660135 35.85059368 -70.51039076 35.83939004 C-85.2924671 35.79446819 -98.97348194 36.51663801 -113.28899527 40.37004495 C-107.39613812 32.06647352 -107.39613812 32.06647352 -103.28899527 30.37004495 C-103.28899527 29.71004495 -103.28899527 29.05004495 -103.28899527 28.37004495 C-74.34162671 1.34557161 -37.32221029 -0.11548287 0 0 Z " fill="#FAECCD" transform="translate(464.2889952659607,304.62995505332947)"/>
<path d="M0 0 C0.33 0 0.66 0 1 0 C1.88594267 4.55026099 2.1420553 8.94326241 2.12698364 13.56365967 C2.12932363 14.6755758 2.12932363 14.6755758 2.13171089 15.80995488 C2.13568568 18.28315447 2.13254486 20.75629219 2.12939453 23.22949219 C2.13075018 25.00723303 2.13253103 26.78497359 2.13470459 28.56271362 C2.13926077 33.38519702 2.13749645 38.20765901 2.1343255 43.03014278 C2.13179097 48.08367406 2.13414264 53.13720352 2.13571167 58.19073486 C2.13753083 66.68119637 2.13513438 75.17164919 2.13037109 83.66210938 C2.12493597 93.4629571 2.1266867 103.26378401 2.1321975 113.06463122 C2.1367442 121.48946903 2.13737134 129.91430059 2.13475883 138.33913922 C2.13320373 143.36624063 2.13298111 148.39333227 2.13629532 153.42043304 C2.13919641 158.15150546 2.13715736 162.88255121 2.13140106 167.61362076 C2.13008514 169.34453665 2.13044762 171.07545481 2.13266373 172.80636978 C2.14248684 181.2623416 2.06267928 189.59468747 1 198 C0.67 198 0.34 198 0 198 C-0.77594185 178.8645345 -1.1507437 159.77717354 -1.1328125 140.625 C-1.13349019 137.99414053 -1.13446402 135.36328113 -1.13571167 132.73242188 C-1.13750924 127.25683068 -1.13519611 121.78125316 -1.13037109 116.30566406 C-1.12557086 110.79719146 -1.12552385 105.28874599 -1.13037109 99.78027344 C-1.15897306 66.50817675 -0.95404501 33.26028462 0 0 Z " fill="#A7D0D3" transform="translate(693,399)"/>
<path d="M0 0 C1.35568336 0.00333092 1.35568336 0.00333092 2.73875427 0.00672913 C3.75973709 0.00680466 4.78071991 0.00688019 5.8326416 0.00695801 C6.94304306 0.01211929 8.05344452 0.01728058 9.19749451 0.02259827 C10.89336952 0.02472069 10.89336952 0.02472069 12.62350464 0.02688599 C16.25105891 0.03250433 19.8785525 0.04505994 23.50608826 0.05775452 C25.95856133 0.06276715 28.41103536 0.06733047 30.86351013 0.07142639 C36.89022371 0.08247971 42.91690165 0.09923568 48.94358826 0.12025452 C48.94358826 0.45025452 48.94358826 0.78025452 48.94358826 1.12025452 C43.66983251 2.18028697 38.52702308 2.33581187 33.17015076 2.43666077 C32.24640656 2.45744186 31.32266235 2.47822296 30.3709259 2.49963379 C27.43688482 2.5647157 24.50275863 2.62382094 21.56858826 2.68275452 C19.57248591 2.72597912 17.57639199 2.76959464 15.58030701 2.81361389 C10.70148669 2.92035441 5.82258126 3.021737 0.94358826 3.12025452 C-0.62530635 6.08556239 -1.28814518 7.86137319 -1.03297424 11.22962952 C-0.98141174 11.98373108 -0.92984924 12.73783264 -0.87672424 13.51478577 C-0.81227112 14.29209045 -0.74781799 15.06939514 -0.68141174 15.87025452 C-0.62469299 16.66302795 -0.56797424 17.45580139 -0.50953674 18.27259827 C-0.3685748 20.22257187 -0.21384055 22.17154123 -0.05641174 24.12025452 C-0.38641174 24.12025452 -0.71641174 24.12025452 -1.05641174 24.12025452 C-3.45114859 7.69920189 -3.45114859 7.69920189 -3.05641174 1.12025452 C-2.05641174 0.12025452 -2.05641174 0.12025452 0 0 Z " fill="#AAD3D4" transform="translate(450.05641174316406,582.8797454833984)"/>
<path d="M0 0 C8.25 0.66 16.5 1.32 25 2 C25 2.66 25 3.32 25 4 C25.886875 3.649375 26.77375 3.29875 27.6875 2.9375 C33.34623246 1.26560177 39.23193159 2.35813976 45 3 C45 3.33 45 3.66 45 4 C30.81245666 5.9098616 17.07879239 5.09684142 3 3 C3 2.34 3 1.68 3 1 C2.01 0.67 1.02 0.34 0 0 Z " fill="#86BDBF" transform="translate(543,701)"/>
<path d="M0 0 C0.56203125 0.13277344 1.1240625 0.26554688 1.703125 0.40234375 C11.37822032 2.4353009 21.15153001 2.63345557 31 3 C27.93720426 5.04186383 27.28765648 5.25493711 23.83203125 5.265625 C23.02056641 5.26820313 22.20910156 5.27078125 21.37304688 5.2734375 C20.10557617 5.26183594 20.10557617 5.26183594 18.8125 5.25 C17.5740332 5.26160156 17.5740332 5.26160156 16.31054688 5.2734375 C10.89882683 5.25637928 6.14257538 4.74719435 1 3 C0.67 2.01 0.34 1.02 0 0 Z " fill="#9ECACE" transform="translate(548,649)"/>
<path d="M0 0 C0.66 0.66 1.32 1.32 2 2 C0.625 4 0.625 4 -1 6 C-1.66 6 -2.32 6 -3 6 C-3 6.66 -3 7.32 -3 8 C-4.86328125 9.54296875 -4.86328125 9.54296875 -7.3125 11.1875 C-8.11300781 11.73792969 -8.91351562 12.28835938 -9.73828125 12.85546875 C-10.48464844 13.23316406 -11.23101563 13.61085938 -12 14 C-12.99 13.67 -13.98 13.34 -15 13 C-13.37660195 11.29115995 -11.70680947 9.62553283 -10 8 C-9.34 8 -8.68 8 -8 8 C-8 7.34 -8 6.68 -8 6 C-7.38125 5.9175 -6.7625 5.835 -6.125 5.75 C-3.8234856 5.20005805 -3.8234856 5.20005805 -2.875 3 C-2.58625 2.34 -2.2975 1.68 -2 1 C-1.34 0.67 -0.68 0.34 0 0 Z " fill="#87BEC3" transform="translate(610,389)"/>
<path d="M0 0 C-1.03640625 0.38671875 -2.0728125 0.7734375 -3.140625 1.171875 C-4.51063149 1.69735694 -5.88041139 2.22342989 -7.25 2.75 C-7.93191406 3.00265625 -8.61382812 3.2553125 -9.31640625 3.515625 C-13.40576132 5.10372406 -16.03850541 6.65102014 -19 10 C-21.5 11.5 -21.5 11.5 -24 13 C-25.36984198 14.29579647 -26.7151049 15.61992749 -28 17 C-28.66 16.67 -29.32 16.34 -30 16 C-23.78232712 8.95939983 -10.32531342 -3.97127439 0 0 Z " fill="#96C6CB" transform="translate(367,358)"/>
<path d="M0 0 C-1.42300113 4.68904588 -4.15696334 7.51610475 -7.625 10.8125 C-8.140625 11.31458984 -8.65625 11.81667969 -9.1875 12.33398438 C-10.45159154 13.56296227 -11.72488806 14.78246001 -13 16 C-13.99 15.67 -14.98 15.34 -16 15 C-16 14.34 -16 13.68 -16 13 C-14.68 13 -13.36 13 -12 13 C-11.773125 12.484375 -11.54625 11.96875 -11.3125 11.4375 C-5.15384615 0 -5.15384615 0 0 0 Z " fill="#8BC1C4" transform="translate(666,659)"/>
<path d="M0 0 C-1.52763464 4.08596252 -4.11084191 5.79826179 -7.625 8.25 C-8.62789062 8.95640625 -9.63078125 9.6628125 -10.6640625 10.390625 C-11.43492187 10.92171875 -12.20578125 11.4528125 -13 12 C-13.33 11.34 -13.66 10.68 -14 10 C-14.66 9.67 -15.32 9.34 -16 9 C-15.13375 8.608125 -14.2675 8.21625 -13.375 7.8125 C-9.73846286 5.85954487 -7.11299466 3.68849539 -4 1 C-2 0 -2 0 0 0 Z " fill="#8CC1C4" transform="translate(650,675)"/>
<path d="M0 0 C2.53541298 0.09086451 5.03554784 0.2370945 7.5625 0.4375 C8.62887695 0.51581055 8.62887695 0.51581055 9.71679688 0.59570312 C11.47821999 0.72574107 13.23916173 0.86226897 15 1 C15 1.33 15 1.66 15 2 C6.33003296 3.16711095 -2.27369392 3.09744014 -11 3 C-11 2.67 -11 2.34 -11 2 C-10.28972656 1.93941406 -9.57945312 1.87882813 -8.84765625 1.81640625 C-7.46900391 1.69072266 -7.46900391 1.69072266 -6.0625 1.5625 C-5.14597656 1.48128906 -4.22945312 1.40007813 -3.28515625 1.31640625 C-1.03840268 1.23955024 -1.03840268 1.23955024 0 0 Z " fill="#AFD6D9" transform="translate(573,703)"/>
<path d="M0 0 C-2.54782974 2.97246802 -5.45340883 4.41535288 -9 6 C-9.66 6 -10.32 6 -11 6 C-9.08100535 0.24301605 -5.72528715 -0.39036049 0 0 Z " fill="#88C1C5" transform="translate(635,687)"/>
<path d="M0 0 C3 1 3 1 4 3 C-0.26616316 4.13764351 -3.56486311 5 -8 5 C-7.67 4.01 -7.34 3.02 -7 2 C-4.69 2.33 -2.38 2.66 0 3 C0 2.01 0 1.02 0 0 Z " fill="#92C5CA" transform="translate(598,699)"/>
<path d="M0 0 C0 3.64478912 -0.85802506 5.09303401 -3 8 C-5.0625 8.875 -5.0625 8.875 -7 9 C-7.66 8.67 -8.32 8.34 -9 8 C-6.03 5.36 -3.06 2.72 0 0 Z " fill="#9BCAD0" transform="translate(619,632)"/>
<path d="M0 0 C-1.1858237 3.37503669 -2.27573689 5.64722731 -5 8 C-5.36625971 3.48279689 -5.36625971 3.48279689 -3.625 1.1875 C-2 0 -2 0 0 0 Z " fill="#90C1C6" transform="translate(617,382)"/>
<path d="M0 0 C5.75 1.75 5.75 1.75 8 4 C6.68 4.33 5.36 4.66 4 5 C4 4.34 4 3.68 4 3 C2.68 3 1.36 3 0 3 C0 2.01 0 1.02 0 0 Z " fill="#90C0C3" transform="translate(660,359)"/>
<path d="M0 0 C0.66 0.99 1.32 1.98 2 3 C0.19587357 6.26460973 -0.83394693 7.88929795 -4 10 C-2.66666667 6.66666667 -1.33333333 3.33333333 0 0 Z " fill="#96C3C9" transform="translate(635,609)"/>
<path d="M0 0 C0.99 0 1.98 0 3 0 C3 0.66 3 1.32 3 2 C3.99 2 4.98 2 6 2 C6.33 3.65 6.66 5.3 7 7 C5.83040013 6.02433888 4.66438823 5.044375 3.5 4.0625 C2.8503125 3.51722656 2.200625 2.97195313 1.53125 2.41015625 C1.0259375 1.94480469 0.520625 1.47945312 0 1 C0 0.67 0 0.34 0 0 Z " fill="#8BC0C2" transform="translate(473,659)"/>
<path d="M0 0 C-0.66 1.32 -1.32 2.64 -2 4 C-3.98 4 -5.96 4 -8 4 C-2.7826087 0 -2.7826087 0 0 0 Z " fill="#9AC9CC" transform="translate(607,643)"/>
<path d="M0 0 C0.33 0.99 0.66 1.98 1 3 C-0.4375 5.6875 -0.4375 5.6875 -2 8 C-2.66 7.67 -3.32 7.34 -4 7 C-2.79618552 4.50638429 -1.54571278 2.31856917 0 0 Z " fill="#97C4CC" transform="translate(630,619)"/>
</svg>
